<?xml version="1.0" standalone="no"?>
<!DOCTYPE svg PUBLIC "-//W3C//DTD SVG 20010904//EN"
 "http://www.w3.org/TR/2001/REC-SVG-20010904/DTD/svg10.dtd">
<svg version="1.0" xmlns="http://www.w3.org/2000/svg"
 width="468.000000pt" height="88.000000pt" viewBox="0 0 468.000000 88.000000"
 preserveAspectRatio="xMidYMid meet">
<metadata>
Created by potrace 1.16, written by Peter Selinger 2001-2019
</metadata>
<g transform="translate(0.000000,88.000000) scale(0.100000,-0.100000)"
fill="#000000" stroke="none">
<path d="M1679 831 c-36 -57 -94 -184 -117 -253 -9 -27 -19 -48 -23 -48 -8 0
-74 122 -71 133 1 4 -2 7 -7 7 -14 0 -32 54 -33 99 0 23 -4 44 -10 47 -5 3
-25 -4 -46 -16 -20 -13 -58 -29 -84 -36 -59 -18 -108 -65 -108 -105 0 -39 16
-37 61 11 21 21 49 42 63 46 25 6 26 5 16 -21 -6 -16 -7 -33 -1 -43 5 -10 4
-33 -4 -61 -6 -25 -17 -74 -24 -109 -13 -69 -29 -112 -43 -112 -4 0 -8 -13 -8
-30 0 -33 23 -41 52 -17 16 12 44 87 53 142 2 17 9 59 15 94 6 36 12 66 14 69
3 2 11 -9 20 -26 28 -54 97 -152 106 -152 6 0 10 -9 10 -19 0 -11 5 -23 10
-26 6 -3 10 -23 10 -43 0 -61 12 -69 54 -37 42 32 54 65 37 110 -25 70 -6 187
49 296 23 44 35 59 46 55 16 -6 68 17 79 35 10 16 -35 59 -62 59 -18 0 -32
-13 -54 -49z"/>
<path d="M3462 837 c-15 -12 -29 -22 -31 -24 -2 -2 1 -13 6 -26 10 -21 7 -26
-33 -51 -50 -32 -72 -62 -56 -78 7 -7 21 -3 44 13 18 13 35 27 36 31 10 22 21
1 31 -58 11 -58 10 -69 -4 -84 -12 -14 -14 -23 -7 -37 13 -24 -12 -150 -42
-206 -15 -29 -29 -43 -46 -45 -34 -5 -50 -20 -50 -48 0 -58 100 -3 140 76 11
21 27 78 36 126 9 49 18 94 20 101 1 7 22 17 46 23 24 6 52 15 63 19 26 11 63
26 100 40 36 15 106 61 121 80 6 8 11 29 12 46 1 31 -2 34 -61 59 -34 14 -75
28 -92 30 -16 2 -41 6 -55 10 -14 3 -53 10 -88 15 -56 7 -66 5 -90 -12z m282
-102 c20 -15 35 -33 33 -39 -8 -26 -216 -114 -238 -100 -11 6 -12 62 -2 129
l6 47 83 -5 c70 -4 87 -8 118 -32z"/>
<path d="M4067 844 c-3 -4 -18 -8 -32 -10 -35 -3 -75 -30 -77 -52 0 -9 -2 -22
-2 -29 -1 -6 -12 -23 -25 -37 -19 -21 -22 -29 -13 -38 10 -10 17 -10 32 0 40
25 39 -11 -5 -207 -14 -63 -27 -124 -29 -135 -8 -42 -19 -56 -42 -56 -33 0
-52 -40 -36 -75 15 -32 27 -32 57 1 41 44 73 125 84 210 12 91 21 137 26 142
7 8 32 -23 28 -34 -5 -15 45 -74 63 -74 8 0 14 -4 14 -9 0 -5 8 -12 18 -15 10
-3 42 -22 72 -41 60 -39 112 -44 118 -13 4 19 -44 48 -78 48 -11 0 -20 4 -20
9 0 5 -8 12 -17 15 -44 15 -120 186 -83 186 16 0 111 64 144 97 32 31 34 69 5
78 -11 4 -23 5 -25 2 -3 -3 -20 -1 -37 4 -18 4 -48 11 -67 14 -19 3 -36 10
-38 16 -4 10 -25 12 -35 3z"/>
<path d="M255 814 c-22 -7 -65 -18 -97 -24 -31 -6 -77 -25 -102 -41 -45 -30
-69 -70 -47 -77 6 -2 11 -10 11 -19 0 -14 10 -13 68 8 22 8 31 39 12 39 -5 0
-10 4 -10 8 0 11 99 34 111 26 11 -6 4 -126 -10 -180 -12 -49 -34 -193 -33
-218 2 -32 17 -38 43 -18 20 17 23 27 21 73 -3 58 15 149 29 149 4 0 17 -19
28 -42 40 -85 78 -110 182 -116 58 -3 83 0 108 12 35 18 64 73 59 109 -3 19
-4 20 -19 4 -9 -9 -19 -14 -22 -11 -3 3 -13 -8 -22 -25 -13 -27 -21 -31 -54
-31 -138 0 -226 162 -124 227 15 10 30 21 33 24 3 4 37 29 75 56 71 50 90 73
56 73 -21 0 -76 -35 -146 -95 -27 -23 -69 -54 -92 -68 l-42 -27 5 43 c4 23 15
64 25 91 17 46 17 68 1 65 -4 -1 -25 -7 -47 -15z"/>
<path d="M2269 811 c-36 -19 -45 -37 -30 -60 7 -11 15 -11 41 -2 61 21 71 16
69 -31 -2 -74 -9 -95 -34 -106 -32 -15 -33 -50 -2 -61 12 -5 26 -6 31 -3 5 3
6 0 2 -6 -4 -7 -9 -22 -11 -34 -16 -82 -40 -132 -76 -157 -34 -23 -58 -65 -45
-78 3 -3 21 -2 40 1 45 9 80 67 116 191 25 86 27 90 56 91 16 1 44 -5 62 -13
30 -15 34 -14 67 8 35 24 51 47 40 58 -3 3 -42 8 -86 12 -44 4 -82 9 -84 11
-2 2 2 30 8 63 12 59 13 60 47 62 19 1 50 -3 68 -9 29 -9 36 -6 72 22 54 43
45 56 -38 52 -102 -5 -261 -4 -271 2 -4 3 -23 -3 -42 -13z"/>
<path d="M1964 791 c-109 -63 -184 -210 -184 -359 0 -44 18 -86 44 -104 27
-18 74 -6 136 37 75 50 80 48 81 -40 2 -113 -102 -233 -245 -281 -44 -15 -64
-44 -30 -44 21 0 97 22 104 30 3 4 25 20 50 37 42 28 111 98 153 154 27 36 55
145 60 232 l4 77 -27 0 c-32 0 -65 -24 -83 -59 -15 -30 -131 -111 -158 -111
-11 0 -17 5 -14 10 3 6 2 10 -3 10 -16 0 -36 61 -33 104 5 90 118 266 170 266
19 0 35 -25 26 -40 -7 -11 -9 -119 -3 -126 9 -8 70 30 82 51 6 11 14 22 18 25
9 7 -14 127 -27 139 -26 24 -70 21 -121 -8z"/>
<path d="M4465 775 c-46 -49 -79 -126 -93 -218 -18 -117 -1 -190 51 -215 24
-12 31 -11 63 9 36 22 108 105 118 137 3 9 19 24 35 33 29 17 31 23 34 104 2
33 -2 42 -21 50 -12 5 -25 19 -28 30 -3 11 -9 29 -14 40 -5 11 -14 32 -20 48
-8 23 -15 27 -47 27 -31 0 -43 -7 -78 -45z m65 -75 c6 -19 14 -62 17 -94 4
-50 2 -62 -13 -73 -18 -13 -18 -15 -2 -24 24 -14 16 -34 -43 -100 -33 -37 -54
-37 -74 1 -19 37 -11 138 16 196 10 22 19 44 19 49 0 18 53 96 60 88 4 -4 13
-24 20 -43z"/>
<path d="M817 763 c-3 -5 -35 -24 -72 -42 -46 -24 -65 -38 -63 -50 4 -16 20
-19 49 -7 11 5 15 2 14 -11 -2 -26 -25 -124 -36 -153 -5 -14 -11 -42 -13 -62
-3 -21 -8 -54 -12 -74 l-7 -36 34 7 c19 4 46 13 60 21 39 20 129 93 171 138
l37 41 1 -55 c1 -141 49 -184 118 -105 24 28 23 61 -2 52 -8 -3 -17 1 -20 9
-11 29 -6 149 9 189 17 47 19 105 5 105 -12 0 -48 -19 -72 -39 -10 -8 -21 -29
-24 -48 -5 -26 -30 -58 -98 -128 -51 -50 -102 -97 -114 -104 -20 -11 -22 -9
-22 17 0 65 69 253 107 290 13 13 22 29 20 35 -4 14 -63 22 -70 10z"/>
<path d="M2740 727 c-91 -52 -103 -89 -21 -62 18 6 22 4 15 -6 -5 -8 -9 -18
-10 -24 -10 -48 -46 -228 -53 -258 -5 -22 -5 -40 1 -43 11 -7 108 27 108 38 0
4 7 8 15 8 8 0 48 33 90 73 l75 72 0 -52 c0 -64 25 -130 52 -139 15 -4 30 4
59 32 46 45 47 52 14 60 -19 5 -25 14 -31 49 -6 45 -3 67 24 177 9 37 13 70 9
74 -4 4 -27 -2 -52 -14 -37 -18 -46 -28 -55 -63 -15 -54 -137 -190 -207 -231
l-30 -17 8 52 c12 93 69 238 103 266 9 8 16 22 16 32 0 31 -47 22 -130 -24z"/>
</g>
</svg>
